<svg width="30" height="32" viewBox="0 0 30 32" fill="none" xmlns="http://www.w3.org/2000/svg">
<path d="M8.78279 0C3.96169 0 0 4.23855 0 9.40945V22.5905C0 27.7556 3.95626 32 8.78279 32H21.086C25.9071 32 29.8688 27.7615 29.8688 22.5905V9.41091C29.8688 4.24436 25.9125 0 21.086 0H8.78279ZM8.78279 2.90909H21.086C21.8831 2.90794 22.6726 3.0753 23.4092 3.40156C24.1458 3.72783 24.8151 4.2066 25.3787 4.81044C25.9424 5.41429 26.3893 6.13134 26.6938 6.92051C26.9983 7.70969 27.1545 8.55549 27.1535 9.40945V22.5905C27.1545 23.4445 26.9983 24.2903 26.6938 25.0795C26.3893 25.8687 25.9424 26.5857 25.3787 27.1896C24.8151 27.7934 24.1458 28.2722 23.4092 28.5984C22.6726 28.9247 21.8831 29.0921 21.086 29.0909H8.78415C7.98694 29.0923 7.19733 28.925 6.46055 28.5989C5.72377 28.2727 5.05432 27.7939 4.49055 27.1901C3.92677 26.5862 3.47977 25.8691 3.17515 25.0798C2.87053 24.2906 2.71427 23.4446 2.71535 22.5905V9.41091C2.7141 8.55682 2.87017 7.71087 3.17463 6.92152C3.47909 6.13218 3.92594 5.41495 4.48959 4.81096C5.05323 4.20696 5.72259 3.72806 6.45929 3.4017C7.196 3.07534 7.98558 2.90794 8.78279 2.90909ZM22.9528 6.09164C22.7911 6.09087 22.6308 6.12443 22.4812 6.19038C22.3317 6.25634 22.1958 6.35338 22.0814 6.4759C21.9671 6.59842 21.8765 6.744 21.8149 6.90424C21.7534 7.06447 21.722 7.23618 21.7228 7.40945C21.7228 8.14255 22.2686 8.72727 22.9528 8.72727C23.1147 8.72824 23.2751 8.69482 23.4248 8.62895C23.5745 8.56308 23.7106 8.46607 23.8251 8.34353C23.9396 8.22098 24.0303 8.07534 24.0919 7.91501C24.1536 7.75468 24.1849 7.58285 24.1842 7.40945C24.1849 7.23606 24.1536 7.06423 24.0919 6.9039C24.0303 6.74357 23.9396 6.59792 23.8251 6.47538C23.7106 6.35284 23.5745 6.25583 23.4248 6.18996C23.2751 6.12409 23.1147 6.09067 22.9528 6.09164ZM14.9344 7.27273C10.4541 7.27273 6.78837 11.2 6.78837 16C6.78837 20.8 10.4541 24.7273 14.9344 24.7273C19.4147 24.7273 23.0804 20.8 23.0804 16C23.0804 11.2 19.4147 7.27273 14.9344 7.27273ZM14.9344 10.1818C17.9525 10.1818 20.3651 12.7665 20.3651 16C20.3651 19.2335 17.9525 21.8182 14.9344 21.8182C11.9163 21.8182 9.50371 19.2335 9.50371 16C9.50371 12.7665 11.9163 10.1818 14.9344 10.1818Z" fill="white"/>
</svg>
